<svg width="362" height="228" viewBox="0 0 362 228" fill="none" xmlns="http://www.w3.org/2000/svg">
<rect x="1.23886" y="1.10141" width="359.698" height="225.617" rx="1.93386" fill="#FFFBF4" stroke="#CECECE" stroke-width="1.28924"/>
<path d="M208.987 196.421L153.214 196.164C146.506 196.133 141.093 190.671 141.122 183.964L141.712 44.1412C141.741 37.4296 147.206 32.0124 153.917 32.0434L209.69 32.3012C216.398 32.3322 221.811 37.7938 221.783 44.5011L221.191 184.324C221.163 191.036 215.698 196.453 208.987 196.421Z" fill="#1A2E35"/>
<path d="M209.569 37.0587L198.755 37.0088C197.305 37.0022 196.125 38.226 196.118 39.7416L196.109 41.703C196.104 43.219 194.922 44.4427 193.472 44.4357L172.395 44.3383C170.945 44.3321 169.775 43.0976 169.781 41.5812L169.789 39.6202C169.795 38.1042 168.625 36.8696 167.175 36.8631L163.372 36.8453L153.907 36.8016C149.207 36.7799 145.38 40.5736 145.36 45.2743L144.783 181.751C144.763 186.449 148.554 190.274 153.252 190.295L208.913 190.553C213.613 190.574 217.441 186.781 217.461 182.08L218.038 45.603C218.057 40.9053 214.266 37.0804 209.569 37.0587Z" fill="white"/>
<path d="M212.098 52.0856C212.097 52.306 211.918 52.4842 211.697 52.4835C211.477 52.4823 211.299 52.3029 211.299 52.0825C211.3 51.8621 211.479 51.6839 211.7 51.6847C211.921 51.6858 212.098 51.8652 212.098 52.0856Z" fill="#1A2E35"/>
<path d="M212.092 53.5227C212.091 53.743 211.912 53.9213 211.691 53.9205C211.471 53.9197 211.293 53.7403 211.293 53.5199C211.294 53.2992 211.473 53.1213 211.694 53.1221C211.914 53.1229 212.093 53.3023 212.092 53.5227Z" fill="#1A2E35"/>
<path d="M212.086 54.9584C212.085 55.1788 211.905 55.357 211.685 55.3563C211.465 55.3555 211.287 55.1757 211.288 54.9553C211.288 54.7349 211.467 54.5567 211.688 54.5579C211.909 54.5586 212.087 54.738 212.086 54.9584Z" fill="#1A2E35"/>
<path d="M209.239 99.5809V101.092H209.084V99.7189H208.727V99.5809H209.239Z" fill="#E1E1E1"/>
<path d="M210.017 99.5809V101.092H209.862V99.7189H209.505V99.5809H210.017Z" fill="#E1E1E1"/>
<path d="M210.379 100.984C210.379 100.917 210.431 100.867 210.493 100.867C210.556 100.867 210.61 100.917 210.61 100.984C210.61 101.051 210.556 101.103 210.493 101.103C210.431 101.103 210.379 101.051 210.379 100.984ZM210.379 100.064C210.379 99.9975 210.431 99.9477 210.493 99.9477C210.556 99.9477 210.61 99.9975 210.61 100.064C210.61 100.131 210.556 100.183 210.493 100.183C210.431 100.183 210.379 100.131 210.379 100.064Z" fill="#E1E1E1"/>
<path d="M211.868 100.954V101.092H210.807V100.982L211.436 100.367C211.606 100.198 211.639 100.097 211.639 99.9934C211.639 99.8183 211.516 99.7104 211.285 99.7104C211.107 99.7104 210.972 99.7645 210.872 99.879L210.762 99.7839C210.879 99.6458 211.066 99.5681 211.297 99.5681C211.604 99.5681 211.798 99.7235 211.798 99.976C211.798 100.121 211.753 100.25 211.55 100.449L211.036 100.954H211.868Z" fill="#E1E1E1"/>
<path d="M213.086 100.648C213.086 100.905 212.907 101.105 212.538 101.105C212.32 101.105 212.112 101.03 211.996 100.911L212.071 100.788C212.169 100.889 212.341 100.963 212.536 100.963C212.793 100.963 212.929 100.837 212.929 100.654C212.929 100.46 212.808 100.339 212.423 100.339H212.102L212.179 99.5808H213.006V99.7192H212.315L212.264 100.201H212.458C212.914 100.201 213.086 100.38 213.086 100.648Z" fill="#E1E1E1"/>
<path d="M207.325 159.529V161.04H207.169V159.667H206.813V159.529H207.325Z" fill="#E1E1E1"/>
<path d="M208.104 159.529V161.04H207.949V159.667H207.592V159.529H208.104Z" fill="#E1E1E1"/>
<path d="M208.466 160.933C208.466 160.866 208.518 160.816 208.58 160.816C208.643 160.816 208.697 160.866 208.697 160.933C208.697 161 208.643 161.052 208.58 161.052C208.518 161.052 208.466 161 208.466 160.933ZM208.466 160.013C208.466 159.946 208.518 159.897 208.58 159.897C208.643 159.897 208.697 159.946 208.697 160.013C208.697 160.08 208.643 160.132 208.58 160.132C208.518 160.132 208.466 160.08 208.466 160.013Z" fill="#E1E1E1"/>
<path d="M210.206 160.643H209.904V161.04H209.748V160.643H208.896V160.531L209.697 159.529H209.869L209.097 160.505H209.753V160.155H209.904V160.505H210.206V160.643Z" fill="#E1E1E1"/>
<path d="M211.366 160.597C211.366 160.854 211.186 161.055 210.817 161.055C210.599 161.055 210.392 160.979 210.275 160.861L210.351 160.737C210.448 160.839 210.621 160.912 210.815 160.912C211.072 160.912 211.208 160.787 211.208 160.604C211.208 160.409 211.087 160.288 210.703 160.288H210.381L210.459 159.53H211.286V159.669H210.595L210.543 160.15H210.737C211.193 160.15 211.366 160.329 211.366 160.597Z" fill="#E1E1E1"/>
<path d="M197.902 101.092H168.695V81.3042C168.695 77.6126 171.687 74.6197 175.379 74.6197H197.902C201.594 74.6197 204.586 77.6126 204.586 81.3042V94.4077C204.586 98.0997 201.594 101.092 197.902 101.092Z" fill="#ECECEC"/>
<path d="M196.202 163.708H168.461V153.84C168.461 151.35 170.48 149.332 172.969 149.332H196.202C198.691 149.332 200.71 151.35 200.71 153.84V159.2C200.71 161.689 198.691 163.708 196.202 163.708Z" fill="#ECECEC"/>
<path d="M156.509 172.228C153.315 172.228 150.716 174.826 150.716 178.02V178.293C150.716 181.487 153.315 184.086 156.509 184.086H207.028C210.222 184.086 212.82 181.487 212.82 178.293V178.02C212.82 174.826 210.222 172.228 207.028 172.228H156.509ZM207.028 184.472H156.509C153.101 184.472 150.33 181.7 150.33 178.293V178.02C150.33 174.613 153.101 171.841 156.509 171.841H207.028C210.435 171.841 213.207 174.613 213.207 178.02V178.293C213.207 181.7 210.435 184.472 207.028 184.472Z" fill="#FF4F5B"/>
<path d="M210.472 177.965C210.472 179.699 209.066 181.105 207.332 181.105C205.598 181.105 204.192 179.699 204.192 177.965C204.192 176.231 205.598 174.825 207.332 174.825C209.066 174.825 210.472 176.231 210.472 177.965Z" fill="#FF4F5B"/>
<path d="M205.682 177.763L206.867 178.182C206.898 178.193 206.92 178.217 206.929 178.248L207.272 179.519L208.494 176.759L205.682 177.763ZM207.251 179.905C207.248 179.905 207.246 179.905 207.243 179.904C207.202 179.901 207.168 179.873 207.157 179.833L206.755 178.348L205.361 177.854C205.322 177.84 205.297 177.804 205.297 177.763C205.297 177.723 205.322 177.686 205.361 177.672L208.64 176.501C208.677 176.488 208.717 176.498 208.744 176.526C208.77 176.554 208.777 176.595 208.762 176.631L207.339 179.847C207.323 179.882 207.288 179.905 207.251 179.905Z" fill="white"/>
<path d="M206.837 178.37C206.811 178.37 206.785 178.359 206.765 178.339C206.73 178.299 206.732 178.238 206.772 178.202L208.609 176.521C208.649 176.485 208.71 176.487 208.746 176.526C208.782 176.566 208.779 176.627 208.74 176.663L206.902 178.345C206.884 178.362 206.86 178.37 206.837 178.37Z" fill="white"/>
<path d="M164.816 177.112H164.209V176.954H165.605V177.112H164.998V178.68H164.816V177.112Z" fill="#1A2E35"/>
<path d="M166.865 177.384L166.216 178.836C166.108 179.09 165.97 179.172 165.785 179.172C165.664 179.172 165.548 179.132 165.469 179.053L165.551 178.923C165.615 178.987 165.693 179.021 165.787 179.021C165.903 179.021 165.982 178.967 166.056 178.805L166.113 178.679L165.533 177.384H165.716L166.204 178.486L166.692 177.384H166.865Z" fill="#1A2E35"/>
<path d="M168.251 178.032C168.251 177.731 168.041 177.526 167.767 177.526C167.491 177.526 167.284 177.731 167.284 178.032C167.284 178.335 167.491 178.537 167.767 178.537C168.041 178.537 168.251 178.335 168.251 178.032ZM168.426 178.032C168.426 178.426 168.149 178.693 167.78 178.693C167.573 178.693 167.395 178.604 167.286 178.436V179.159H167.111V177.383H167.279V177.64C167.385 177.467 167.565 177.373 167.78 177.373C168.149 177.373 168.426 177.64 168.426 178.032Z" fill="#1A2E35"/>
<path d="M168.828 177.956H169.748C169.726 177.702 169.541 177.525 169.287 177.525C169.036 177.525 168.851 177.702 168.828 177.956ZM169.914 178.087H168.828C168.848 178.358 169.055 178.538 169.339 178.538C169.497 178.538 169.637 178.481 169.736 178.368L169.835 178.481C169.719 178.619 169.539 178.693 169.334 178.693C168.93 178.693 168.653 178.417 168.653 178.032C168.653 177.647 168.922 177.374 169.287 177.374C169.652 177.374 169.916 177.642 169.916 178.032C169.916 178.047 169.914 178.067 169.914 178.087Z" fill="#1A2E35"/>
<path d="M171.725 178.291V178.079H171.318C171.067 178.079 170.985 178.178 170.985 178.311C170.985 178.461 171.106 178.555 171.313 178.555C171.51 178.555 171.656 178.461 171.725 178.291ZM171.9 177.877V178.681H171.732V178.478C171.653 178.612 171.5 178.693 171.286 178.693C170.992 178.693 170.812 178.541 170.812 178.316C170.812 178.116 170.941 177.948 171.313 177.948H171.725V177.869C171.725 177.647 171.599 177.526 171.357 177.526C171.19 177.526 171.032 177.586 170.926 177.68L170.847 177.549C170.978 177.438 171.17 177.374 171.375 177.374C171.71 177.374 171.9 177.542 171.9 177.877Z" fill="#1A2E35"/>
<path d="M175.163 177.928V178.68H174.988V177.946C174.988 177.672 174.85 177.531 174.615 177.531C174.349 177.531 174.182 177.704 174.182 178V178.68H174.006V177.946C174.006 177.672 173.868 177.531 173.632 177.531C173.368 177.531 173.198 177.704 173.198 178V178.68H173.022V177.383H173.19V177.62C173.282 177.465 173.449 177.373 173.666 177.373C173.881 177.373 174.048 177.465 174.127 177.647C174.221 177.479 174.406 177.373 174.64 177.373C174.956 177.373 175.163 177.556 175.163 177.928Z" fill="#1A2E35"/>
<path d="M175.689 177.956H176.609C176.587 177.702 176.401 177.525 176.148 177.525C175.896 177.525 175.711 177.702 175.689 177.956ZM176.774 178.087H175.689C175.709 178.358 175.916 178.538 176.199 178.538C176.357 178.538 176.498 178.481 176.596 178.368L176.695 178.481C176.579 178.619 176.399 178.693 176.195 178.693C175.79 178.693 175.514 178.417 175.514 178.032C175.514 177.647 175.783 177.374 176.148 177.374C176.512 177.374 176.776 177.642 176.776 178.032C176.776 178.047 176.774 178.067 176.774 178.087Z" fill="#1A2E35"/>
<path d="M176.955 178.533L177.034 178.395C177.138 178.476 177.313 178.541 177.495 178.541C177.742 178.541 177.843 178.457 177.843 178.328C177.843 177.99 177.002 178.257 177.002 177.744C177.002 177.532 177.184 177.374 177.515 177.374C177.682 177.374 177.865 177.421 177.973 177.494L177.897 177.636C177.784 177.557 177.648 177.525 177.515 177.525C177.281 177.525 177.177 177.616 177.177 177.739C177.177 178.089 178.018 177.825 178.018 178.323C178.018 178.548 177.821 178.693 177.483 178.693C177.268 178.693 177.061 178.624 176.955 178.533Z" fill="#1A2E35"/>
<path d="M178.161 178.533L178.24 178.395C178.343 178.476 178.518 178.541 178.7 178.541C178.947 178.541 179.048 178.457 179.048 178.328C179.048 177.99 178.207 178.257 178.207 177.744C178.207 177.532 178.39 177.374 178.72 177.374C178.888 177.374 179.071 177.421 179.179 177.494L179.102 177.636C178.989 177.557 178.853 177.525 178.72 177.525C178.486 177.525 178.383 177.616 178.383 177.739C178.383 178.089 179.224 177.825 179.224 178.323C179.224 178.548 179.026 178.693 178.688 178.693C178.474 178.693 178.267 178.624 178.161 178.533Z" fill="#1A2E35"/>
<path d="M180.351 178.291V178.079H179.944C179.693 178.079 179.611 178.178 179.611 178.311C179.611 178.461 179.732 178.555 179.94 178.555C180.137 178.555 180.282 178.461 180.351 178.291ZM180.527 177.877V178.681H180.359V178.478C180.28 178.612 180.127 178.693 179.912 178.693C179.619 178.693 179.439 178.541 179.439 178.316C179.439 178.116 179.567 177.948 179.94 177.948H180.351V177.869C180.351 177.647 180.225 177.526 179.984 177.526C179.816 177.526 179.659 177.586 179.552 177.68L179.473 177.549C179.604 177.438 179.797 177.374 180.001 177.374C180.336 177.374 180.527 177.542 180.527 177.877Z" fill="#1A2E35"/>
<path d="M182.038 178C182.038 177.719 181.831 177.527 181.545 177.527C181.259 177.527 181.054 177.719 181.054 178C181.054 178.282 181.259 178.476 181.545 178.476C181.831 178.476 182.038 178.282 182.038 178ZM182.209 177.384V178.524C182.209 178.97 181.989 179.172 181.56 179.172C181.323 179.172 181.092 179.1 180.956 178.972L181.045 178.839C181.168 178.95 181.355 179.017 181.555 179.017C181.883 179.017 182.033 178.866 182.033 178.546V178.38C181.925 178.546 181.74 178.632 181.528 178.632C181.158 178.632 180.877 178.373 180.877 178C180.877 177.628 181.158 177.374 181.528 177.374C181.745 177.374 181.932 177.463 182.041 177.633V177.384H182.209Z" fill="#1A2E35"/>
<path d="M182.744 177.956H183.664C183.642 177.702 183.457 177.525 183.203 177.525C182.952 177.525 182.767 177.702 182.744 177.956ZM183.83 178.087H182.744C182.764 178.358 182.971 178.538 183.255 178.538C183.413 178.538 183.553 178.481 183.652 178.368L183.751 178.481C183.635 178.619 183.455 178.693 183.25 178.693C182.846 178.693 182.569 178.417 182.569 178.032C182.569 177.647 182.838 177.374 183.203 177.374C183.568 177.374 183.832 177.642 183.832 178.032C183.832 178.047 183.83 178.067 183.83 178.087Z" fill="#1A2E35"/>
<path d="M184.077 178.557C184.077 178.481 184.136 178.424 184.207 178.424C184.279 178.424 184.341 178.481 184.341 178.557C184.341 178.634 184.279 178.693 184.207 178.693C184.136 178.693 184.077 178.634 184.077 178.557Z" fill="#1A2E35"/>
<path d="M184.601 178.557C184.601 178.481 184.66 178.424 184.732 178.424C184.803 178.424 184.865 178.481 184.865 178.557C184.865 178.634 184.803 178.693 184.732 178.693C184.66 178.693 184.601 178.634 184.601 178.557Z" fill="#1A2E35"/>
<path d="M185.124 178.557C185.124 178.481 185.183 178.424 185.254 178.424C185.326 178.424 185.388 178.481 185.388 178.557C185.388 178.634 185.326 178.693 185.254 178.693C185.183 178.693 185.124 178.634 185.124 178.557Z" fill="#1A2E35"/>
<path d="M156.475 179.234C156.234 179.523 155.802 179.563 155.513 179.322C155.223 179.08 155.184 178.649 155.425 178.359L156.838 176.662C156.995 176.474 157.274 176.449 157.462 176.604C157.649 176.761 157.675 177.04 157.519 177.228L156.32 178.667L156.322 178.668C156.227 178.737 156.098 178.738 156.008 178.662C155.916 178.586 155.895 178.457 155.946 178.352L156.869 177.243L156.742 177.137L155.86 178.196L155.86 178.197L155.817 178.248L155.822 178.253C155.719 178.427 155.75 178.652 155.907 178.783C156.064 178.914 156.291 178.904 156.444 178.771L156.447 178.773L156.47 178.744C156.477 178.737 156.486 178.731 156.492 178.723L156.49 178.721L157.659 177.318L157.658 177.317C157.858 177.06 157.82 176.688 157.567 176.478C157.315 176.268 156.942 176.297 156.725 176.541L156.725 176.54L155.249 178.313L155.251 178.315C155.005 178.672 155.067 179.166 155.407 179.448C155.747 179.731 156.243 179.703 156.55 179.397L156.553 179.399L157.742 177.97L157.616 177.864L156.475 179.234Z" fill="#FF4F5B"/>
<path d="M165.328 100.908H151.168V86.7491H165.328V100.908Z" fill="#FF4F5B"/>
<g opacity="0.699997">
<path opacity="0.699997" d="M165.328 100.908H151.168V86.7491H165.328V100.908Z" fill="white"/>
</g>
<path d="M161.312 91.6666C159.502 90.2731 157.08 89.9689 154.981 90.8705C154.981 90.8705 154.667 95.0334 154.69 96.8459C154.712 98.6585 156.525 98.9407 156.525 98.9407L156.518 100.903L160.935 100.907L161.581 91.8734L161.312 91.6666Z" fill="#C78976"/>
<path d="M156.521 98.9148C156.521 98.9148 157.666 99.008 158.884 98.2432C158.884 98.2432 158.325 99.5477 156.517 99.3846L156.521 98.9148Z" fill="#BF654E"/>
<path d="M161.357 93.7513C161.388 93.7378 162.602 93.3829 162.563 94.622C162.523 95.8616 161.287 95.5662 161.286 95.5306C161.285 95.4951 161.357 93.7513 161.357 93.7513Z" fill="#C78976"/>
<path d="M161.679 95.0733C161.684 95.0695 161.699 95.0892 161.735 95.107C161.771 95.1244 161.832 95.1375 161.897 95.1155C162.029 95.0718 162.146 94.8673 162.16 94.6442C162.166 94.5313 162.146 94.423 162.109 94.3329C162.074 94.2413 162.017 94.1759 161.952 94.162C161.887 94.145 161.839 94.1829 161.822 94.2173C161.805 94.2513 161.812 94.2761 161.805 94.278C161.802 94.2811 161.779 94.2568 161.791 94.2057C161.797 94.1814 161.812 94.1528 161.842 94.1296C161.873 94.1064 161.917 94.0955 161.962 94.1017C162.058 94.1118 162.141 94.2022 162.182 94.3012C162.228 94.401 162.253 94.5224 162.246 94.6492C162.23 94.8986 162.095 95.1282 161.914 95.1742C161.826 95.194 161.754 95.1657 161.717 95.1352C161.68 95.1035 161.674 95.0753 161.679 95.0733Z" fill="#BF654E"/>
<path d="M155.575 93.6602C155.57 93.7971 155.682 93.9135 155.825 93.9212C155.967 93.9289 156.087 93.8246 156.092 93.6881C156.097 93.5512 155.985 93.4344 155.843 93.4267C155.7 93.419 155.58 93.5234 155.575 93.6602Z" fill="#1A2E35"/>
<path d="M155.323 93.4213C155.356 93.4549 155.552 93.3099 155.83 93.3107C156.109 93.3076 156.313 93.4507 156.343 93.4166C156.358 93.4016 156.325 93.3409 156.236 93.2759C156.149 93.2113 155.999 93.1483 155.826 93.1491C155.653 93.1503 155.506 93.214 155.422 93.2794C155.337 93.3451 155.308 93.4062 155.323 93.4213Z" fill="#1A2E35"/>
<path d="M158.313 93.7768C158.308 93.9137 158.42 94.0304 158.562 94.0382C158.705 94.0455 158.824 93.9415 158.829 93.8046C158.834 93.6678 158.722 93.551 158.58 93.5433C158.437 93.5356 158.318 93.6399 158.313 93.7768Z" fill="#1A2E35"/>
<path d="M158.062 93.4726C158.094 93.5062 158.29 93.3612 158.569 93.362C158.847 93.3585 159.052 93.502 159.082 93.468C159.096 93.4529 159.064 93.3918 158.975 93.3272C158.887 93.2626 158.738 93.1996 158.564 93.2004C158.39 93.2012 158.245 93.2654 158.161 93.3307C158.075 93.3964 158.046 93.4575 158.062 93.4726Z" fill="#1A2E35"/>
<path d="M157.051 95.5394C157.052 95.5236 156.879 95.4934 156.599 95.4578C156.528 95.4505 156.46 95.4362 156.448 95.3875C156.431 95.3364 156.461 95.2595 156.495 95.1768C156.562 95.0047 156.632 94.8241 156.706 94.6351C156.998 93.8641 157.21 93.2297 157.179 93.2184C157.147 93.2068 156.885 93.8228 156.593 94.5937C156.522 94.7839 156.455 94.9653 156.391 95.1389C156.365 95.2197 156.318 95.3113 156.355 95.418C156.374 95.471 156.426 95.5096 156.471 95.522C156.517 95.5359 156.557 95.5367 156.592 95.5386C156.875 95.5541 157.05 95.5553 157.051 95.5394Z" fill="#1A2E35"/>
<path d="M157.99 92.3809C158.017 92.4567 158.296 92.4207 158.622 92.4602C158.95 92.493 159.213 92.5885 159.257 92.5205C159.276 92.488 159.23 92.4169 159.124 92.3434C159.018 92.2703 158.849 92.2007 158.653 92.1791C158.457 92.1574 158.277 92.1888 158.158 92.2371C158.038 92.2854 157.978 92.345 157.99 92.3809Z" fill="#1A2E35"/>
<path d="M155.426 92.6148C155.475 92.6782 155.667 92.6125 155.897 92.6094C156.128 92.5982 156.323 92.6519 156.368 92.5854C156.388 92.5533 156.357 92.4899 156.272 92.43C156.188 92.3704 156.047 92.3217 155.888 92.3264C155.73 92.3318 155.593 92.389 155.512 92.4536C155.431 92.5185 155.404 92.5839 155.426 92.6148Z" fill="#1A2E35"/>
<path d="M154.098 89.7267C154.079 89.5021 154.163 89.2608 154.345 89.129C154.528 88.9968 154.812 89.0053 154.96 89.1746C154.875 88.8723 155.123 88.5231 155.436 88.503C155.732 88.4845 155.984 88.7076 156.27 88.7861C156.548 88.8626 156.848 88.7961 157.116 88.6882C157.384 88.5804 157.635 88.4311 157.907 88.3321C158.473 88.1249 159.121 88.1508 159.669 88.4025C160.217 88.6542 160.659 89.1286 160.871 89.6931C161.268 89.569 161.718 89.7704 161.963 90.106C162.207 90.442 162.27 90.8832 162.222 91.2957C162.189 91.5745 162.108 91.844 162.014 92.1092C162.014 92.1324 162.016 92.1552 162.016 92.1784C161.997 93.1751 161.885 94.3459 161.459 94.3524C160.718 94.364 160.895 92.9671 160.895 92.9671C159.985 92.6161 160.324 91.2532 160.097 91.0463C159.869 90.8395 159.393 90.3593 157.489 91.3324C156.749 91.7102 155.766 91.6986 155.229 91.5768C155.213 91.5733 155.198 91.571 155.182 91.5671C155.179 91.5663 155.174 91.566 155.171 91.5648C155.165 91.5633 155.161 91.5602 155.155 91.5586C154.984 91.5142 154.819 91.4477 154.667 91.3514C154.494 91.2423 154.337 91.0947 154.264 90.9037C154.191 90.7134 154.219 90.4757 154.368 90.3365C154.227 90.1602 154.117 89.9514 154.098 89.7267Z" fill="#1A2E35"/>
<path d="M156.814 96.3957C156.858 96.5063 156.902 96.6184 156.975 96.7124C157.049 96.806 157.156 96.8802 157.275 96.886C157.401 96.8918 157.523 96.8168 157.594 96.7116C157.664 96.6065 157.688 96.4754 157.683 96.3486C157.677 96.2345 157.625 96.0976 157.512 96.0841C157.464 96.0787 157.418 96.0969 157.373 96.1147C157.174 96.1955 156.975 96.2767 156.775 96.3575" fill="#BF654E"/>
<path d="M157.053 96.8878C157.056 96.8688 157.187 96.9222 157.372 96.8483C157.461 96.8124 157.559 96.7412 157.613 96.6291C157.667 96.5185 157.678 96.3689 157.621 96.2382C157.608 96.2054 157.588 96.1756 157.569 96.1485C157.545 96.1238 157.549 96.1249 157.523 96.1288C157.499 96.1354 157.46 96.1539 157.428 96.1663C157.394 96.1798 157.362 96.1934 157.329 96.2065C157.201 96.2583 157.086 96.3036 156.988 96.3399C156.792 96.413 156.668 96.4516 156.662 96.4381C156.657 96.4246 156.77 96.3616 156.958 96.2707C157.052 96.2251 157.165 96.1725 157.291 96.116C157.322 96.1017 157.355 96.0874 157.388 96.0727C157.422 96.0581 157.449 96.0426 157.497 96.0275C157.52 96.0209 157.553 96.0175 157.586 96.0302C157.617 96.043 157.637 96.0646 157.651 96.0824C157.678 96.118 157.702 96.1547 157.719 96.1957C157.789 96.3592 157.772 96.5402 157.7 96.674C157.627 96.8108 157.503 96.8878 157.397 96.9195C157.289 96.9523 157.197 96.9446 157.138 96.9295C157.078 96.9137 157.051 96.8936 157.053 96.8878Z" fill="#1A2E35"/>
<path d="M160.157 90.8771C160.149 90.8764 160.175 90.7983 160.157 90.6579C160.14 90.5199 160.062 90.3181 159.874 90.1487C159.691 89.9747 159.391 89.8707 159.058 89.8792C158.723 89.8819 158.366 89.9921 157.998 90.1162C157.812 90.1773 157.63 90.2353 157.449 90.2755C157.267 90.3146 157.089 90.3358 156.919 90.3401C156.577 90.3502 156.272 90.2949 156.025 90.2226C155.779 90.1476 155.591 90.0563 155.467 89.9856C155.404 89.9508 155.357 89.9202 155.326 89.8989C155.295 89.8777 155.279 89.8661 155.28 89.8642C155.283 89.8595 155.349 89.9032 155.477 89.967C155.603 90.0316 155.791 90.117 156.036 90.1862C156.281 90.2527 156.582 90.3038 156.917 90.2906C157.084 90.2852 157.26 90.2635 157.437 90.2245C157.615 90.1843 157.796 90.1267 157.981 90.0656C158.349 89.9419 158.713 89.8301 159.057 89.8301C159.4 89.8236 159.713 89.9361 159.899 90.1209C160.091 90.3003 160.166 90.5125 160.178 90.6556C160.19 90.801 160.157 90.8771 160.157 90.8771Z" fill="#375A64"/>
<path d="M161.566 93.9408C161.565 93.9416 161.556 93.9284 161.542 93.9025C161.527 93.877 161.509 93.8379 161.486 93.7873C161.44 93.6848 161.384 93.5325 161.341 93.3365C161.3 93.1408 161.274 92.9007 161.295 92.6359C161.311 92.3695 161.394 92.088 161.456 91.7934C161.521 91.4999 161.536 91.2077 161.458 90.9606C161.421 90.8376 161.36 90.7294 161.284 90.6447C161.208 90.5616 161.115 90.5051 161.024 90.4738C160.84 90.4089 160.673 90.4382 160.577 90.485C160.479 90.5349 160.442 90.5875 160.438 90.5829C160.438 90.5829 160.468 90.5249 160.567 90.4669C160.665 90.412 160.84 90.3741 161.036 90.4382C161.133 90.4688 161.234 90.5268 161.317 90.6149C161.399 90.7035 161.464 90.8172 161.505 90.9455C161.589 91.203 161.574 91.5077 161.509 91.8046C161.445 92.1027 161.363 92.3795 161.344 92.6398C161.321 92.8992 161.343 93.1354 161.379 93.3291C161.415 93.5228 161.466 93.6755 161.505 93.7792C161.544 93.8828 161.57 93.9388 161.566 93.9408Z" fill="#375A64"/>
<path d="M160.33 90.7303C160.328 90.7303 160.329 90.7052 160.331 90.6576C160.333 90.6046 160.336 90.5358 160.339 90.4496C160.34 90.2706 160.346 90.0046 160.255 89.6968C160.208 89.5445 160.131 89.3836 160.013 89.2394C159.895 89.0956 159.73 88.97 159.527 88.9181C159.325 88.8632 159.098 88.8826 158.878 88.9448C158.656 89.0071 158.443 89.1176 158.229 89.239C158.015 89.3601 157.805 89.483 157.586 89.57C157.366 89.6543 157.139 89.6988 156.923 89.703C156.707 89.7077 156.501 89.6802 156.316 89.6284C156.131 89.5758 155.966 89.5043 155.824 89.4254C155.54 89.2626 155.352 89.0705 155.24 88.9278C155.183 88.8571 155.146 88.7971 155.122 88.7554C155.097 88.7144 155.086 88.6923 155.087 88.6916C155.089 88.6908 155.104 88.7105 155.131 88.7496C155.158 88.789 155.197 88.8466 155.256 88.9147C155.372 89.0515 155.561 89.2367 155.842 89.3925C155.983 89.4679 156.146 89.536 156.327 89.5859C156.509 89.6346 156.711 89.6597 156.922 89.6539C157.133 89.6485 157.352 89.604 157.567 89.5213C157.781 89.4358 157.988 89.3137 158.203 89.1923C158.418 89.0709 158.636 88.9584 158.864 88.8946C159.09 88.8311 159.327 88.8114 159.54 88.8706C159.753 88.9266 159.927 89.0612 160.047 89.2116C160.169 89.3624 160.246 89.529 160.291 89.686C160.38 90.0027 160.367 90.2706 160.359 90.4504C160.354 90.5408 160.347 90.6108 160.341 90.6584C160.336 90.7056 160.332 90.7303 160.33 90.7303Z" fill="#375A64"/>
<path d="M165.328 164.097H151.168V149.938H165.328V164.097Z" fill="#FF4F5B"/>
<g opacity="0.399994">
<path opacity="0.399994" d="M165.328 164.097H151.168V149.938H165.328V164.097Z" fill="white"/>
</g>
<path d="M155.488 158.456C154.945 157.337 154.8 155.342 155.463 154.249C156.126 153.156 157.442 152.381 158.674 152.038C158.879 151.981 159.102 151.938 159.303 152.008C159.505 152.08 159.666 152.305 159.593 152.506C159.835 152.335 160.082 152.161 160.366 152.077C160.65 151.994 160.983 152.017 161.207 152.21C161.431 152.404 161.488 152.791 161.275 152.996C161.615 152.848 162.04 152.922 162.311 153.176C162.582 153.429 162.683 153.848 162.559 154.198C162.439 154.533 162.165 154.915 161.917 155.17C161.67 155.425 161.642 155.677 161.706 156.026" fill="#1A2E35"/>
<path d="M161.794 156.082C161.737 154.355 160.362 152.962 158.636 152.88L158.465 152.872C156.609 152.892 155.59 154.479 155.661 156.333L155.752 164.097H159.945C159.945 164.097 159.933 162.35 159.935 162.296C159.935 162.296 161.727 162.104 161.834 160.327C161.885 159.468 161.847 157.69 161.794 156.082Z" fill="#FFBF9D"/>
<path d="M159.94 162.27C159.94 162.27 158.812 162.308 157.653 161.501C157.653 161.501 158.14 162.807 159.922 162.731L159.94 162.27Z" fill="#FF9A6C"/>
<path d="M161.22 157.247C161.218 157.382 161.103 157.491 160.963 157.492C160.823 157.493 160.71 157.385 160.712 157.251C160.713 157.116 160.829 157.007 160.969 157.006C161.109 157.005 161.222 157.113 161.22 157.247Z" fill="#1A2E35"/>
<path d="M161.371 156.936C161.338 156.968 161.153 156.816 160.88 156.804C160.607 156.788 160.399 156.919 160.371 156.884C160.357 156.869 160.392 156.811 160.482 156.751C160.572 156.692 160.721 156.637 160.892 156.646C161.062 156.655 161.202 156.724 161.281 156.793C161.362 156.861 161.388 156.922 161.371 156.936Z" fill="#1A2E35"/>
<path d="M158.535 157.213C158.534 157.347 158.419 157.457 158.278 157.457C158.138 157.459 158.026 157.35 158.027 157.216C158.029 157.082 158.144 156.972 158.284 156.971C158.424 156.97 158.537 157.078 158.535 157.213Z" fill="#1A2E35"/>
<path d="M158.682 156.859C158.65 156.89 158.464 156.739 158.19 156.727C157.917 156.71 157.71 156.841 157.682 156.807C157.668 156.791 157.703 156.733 157.794 156.674C157.883 156.614 158.032 156.56 158.202 156.568C158.373 156.577 158.513 156.647 158.592 156.715C158.673 156.783 158.699 156.845 158.682 156.859Z" fill="#1A2E35"/>
<path d="M159.578 158.933C159.577 158.917 159.748 158.896 160.026 158.874C160.096 158.87 160.162 158.859 160.176 158.812C160.195 158.763 160.169 158.686 160.14 158.603C160.082 158.431 160.022 158.251 159.958 158.062C159.708 157.292 159.53 156.659 159.561 156.65C159.592 156.64 159.821 157.256 160.071 158.027C160.131 158.216 160.189 158.397 160.244 158.571C160.266 158.651 160.307 158.743 160.267 158.846C160.246 158.897 160.192 158.933 160.147 158.943C160.102 158.955 160.062 158.953 160.028 158.954C159.75 158.956 159.578 158.948 159.578 158.933Z" fill="#1A2E35"/>
<path d="M158.765 159.085C158.809 159.084 158.796 159.381 159.04 159.604C159.283 159.827 159.601 159.809 159.602 159.85C159.605 159.869 159.528 159.904 159.395 159.902C159.264 159.9 159.074 159.849 158.925 159.713C158.776 159.576 158.718 159.401 158.713 159.279C158.708 159.154 158.745 159.082 158.765 159.085Z" fill="#1A2E35"/>
<path d="M158.804 155.791C158.774 155.864 158.503 155.816 158.18 155.839C157.857 155.856 157.594 155.938 157.555 155.869C157.537 155.836 157.586 155.768 157.694 155.702C157.801 155.635 157.969 155.574 158.163 155.562C158.356 155.55 158.531 155.589 158.646 155.642C158.761 155.695 158.817 155.756 158.804 155.791Z" fill="#1A2E35"/>
<path d="M161.308 156.141C161.257 156.2 161.072 156.127 160.846 156.113C160.62 156.092 160.426 156.135 160.385 156.068C160.367 156.036 160.4 155.975 160.487 155.92C160.572 155.865 160.712 155.824 160.867 155.836C161.023 155.848 161.155 155.911 161.231 155.979C161.307 156.046 161.331 156.111 161.308 156.141Z" fill="#1A2E35"/>
<path d="M155.744 157.656C155.714 157.641 154.539 157.236 154.52 158.454C154.501 159.672 155.728 159.439 155.73 159.404C155.733 159.37 155.744 157.656 155.744 157.656Z" fill="#FFBF9D"/>
<path d="M155.366 158.939C155.36 158.935 155.344 158.953 155.308 158.969C155.273 158.985 155.213 158.995 155.15 158.97C155.022 158.921 154.917 158.715 154.914 158.496C154.913 158.384 154.938 158.279 154.978 158.193C155.017 158.104 155.075 158.043 155.14 158.032C155.205 158.018 155.25 158.058 155.265 158.092C155.28 158.126 155.272 158.151 155.278 158.153C155.282 158.156 155.305 158.133 155.296 158.082C155.292 158.058 155.278 158.029 155.249 158.005C155.22 157.981 155.178 157.968 155.132 157.973C155.039 157.978 154.953 158.063 154.908 158.158C154.858 158.254 154.828 158.372 154.829 158.496C154.833 158.742 154.955 158.974 155.13 159.027C155.216 159.05 155.288 159.026 155.325 158.997C155.363 158.968 155.37 158.941 155.366 158.939Z" fill="#FF9A6C"/>
<path d="M162.609 153.796C162.725 155.378 160.77 156.004 159.931 155.108C159.543 154.693 159.207 154.177 158.673 153.984C158.313 153.855 157.904 153.914 157.561 154.083C157.558 154.085 157.554 154.086 157.551 154.088C157.045 154.341 156.739 154.916 156.652 155.475C156.531 156.254 156.645 156.945 156.431 157.658C156.4 157.76 156.363 157.871 156.275 157.932C156.126 158.036 155.915 157.939 155.796 157.802C155.605 157.582 155.542 157.282 155.504 156.993C155.418 156.336 155.434 155.66 155.609 155.021C155.785 154.383 156.127 153.782 156.627 153.347C157.252 152.805 158.104 152.548 158.93 152.6C159.757 152.652 160.553 153.001 161.189 153.531C161.484 153.777 161.753 154.069 161.895 154.426" fill="#1A2E35"/>
<path d="M161.334 152.906C161.334 152.903 161.395 152.893 161.503 152.916C161.609 152.939 161.761 153.007 161.902 153.147C162.04 153.286 162.166 153.5 162.193 153.765C162.221 154.03 162.128 154.323 161.948 154.564C161.766 154.805 161.521 154.974 161.28 155.067C161.039 155.162 160.806 155.194 160.614 155.203C160.42 155.211 160.264 155.197 160.158 155.182C160.051 155.167 159.994 155.151 159.995 155.145C159.996 155.128 160.232 155.167 160.609 155.137C160.797 155.12 161.02 155.082 161.247 154.987C161.475 154.895 161.702 154.734 161.873 154.508C162.041 154.283 162.128 154.013 162.108 153.773C162.087 153.531 161.977 153.328 161.854 153.193C161.728 153.056 161.591 152.983 161.493 152.951C161.393 152.918 161.334 152.916 161.334 152.906Z" fill="#375A64"/>
<path d="M160.528 152.335C160.528 152.33 160.573 152.322 160.644 152.358C160.713 152.392 160.8 152.481 160.83 152.62C160.859 152.761 160.814 152.93 160.729 153.085C160.644 153.24 160.532 153.401 160.388 153.546C160.101 153.838 159.762 154.009 159.508 154.083C159.253 154.162 159.086 154.157 159.086 154.148C159.083 154.131 159.246 154.113 159.487 154.02C159.727 153.932 160.047 153.76 160.321 153.48C160.459 153.342 160.568 153.189 160.653 153.043C160.738 152.899 160.782 152.752 160.764 152.632C160.747 152.511 160.68 152.428 160.625 152.389C160.568 152.348 160.527 152.343 160.528 152.335Z" fill="#375A64"/>
<path d="M167.056 62.571H163.402C162.807 62.571 162.325 62.0888 162.325 61.4942V57.8401C162.325 57.2451 162.807 56.7633 163.402 56.7633H167.056C167.651 56.7633 168.133 57.2451 168.133 57.8401V61.4942C168.133 62.0888 167.651 62.571 167.056 62.571Z" fill="#FF4F5B"/>
<g opacity="0.399994">
<g opacity="0.399994">
<path opacity="0.399994" d="M167.056 62.571H163.402C162.807 62.571 162.325 62.0888 162.325 61.4942V57.8401C162.325 57.2451 162.807 56.7633 163.402 56.7633H167.056C167.651 56.7633 168.133 57.2451 168.133 57.8401V61.4942C168.133 62.0888 167.651 62.571 167.056 62.571Z" fill="black"/>
</g>
</g>
<path d="M160.742 56.1392H156.566C156.116 56.1392 155.75 55.7739 155.75 55.323V51.1474C155.75 50.6966 156.116 50.3312 156.566 50.3312H160.742C161.193 50.3312 161.558 50.6966 161.558 51.1474V55.323C161.558 55.7739 161.193 56.1392 160.742 56.1392Z" fill="#FF4F5B"/>
<path d="M167.317 56.1392H163.141C162.691 56.1392 162.325 55.7739 162.325 55.323V51.1474C162.325 50.6966 162.691 50.3312 163.141 50.3312H167.317C167.768 50.3312 168.133 50.6966 168.133 51.1474V55.323C168.133 55.7739 167.768 56.1392 167.317 56.1392Z" fill="#FF4F5B"/>
<path d="M160.742 62.571H156.566C156.116 62.571 155.75 62.2056 155.75 61.7552V57.5791C155.75 57.1283 156.116 56.7633 156.566 56.7633H160.742C161.193 56.7633 161.558 57.1283 161.558 57.5791V61.7552C161.558 62.2056 161.193 62.571 160.742 62.571Z" fill="#FF4F5B"/>
<g opacity="0.399994">
<g opacity="0.399994">
<path opacity="0.399994" d="M160.742 62.571H156.566C156.116 62.571 155.75 62.2056 155.75 61.7552V57.5791C155.75 57.1283 156.116 56.7633 156.566 56.7633H160.742C161.193 56.7633 161.558 57.1283 161.558 57.5791V61.7552C161.558 62.2056 161.193 62.571 160.742 62.571Z" fill="white"/>
</g>
</g>
<path d="M151.861 57.6417C151.812 57.6417 151.762 57.6228 151.724 57.5845L150.426 56.2742C150.388 56.2363 150.368 56.1845 150.37 56.1311C150.372 56.0782 150.396 56.0279 150.436 55.9927L151.722 54.8653C151.802 54.7953 151.925 54.803 151.995 54.8835C152.065 54.9635 152.057 55.0857 151.977 55.156L150.845 56.1481L151.999 57.3123C152.074 57.3881 152.073 57.5106 151.998 57.5856C151.96 57.6231 151.911 57.6417 151.861 57.6417Z" fill="#1A2E35"/>
<g opacity="0.699997">
<g opacity="0.699997">
<path opacity="0.699997" d="M160.742 56.1392H156.566C156.116 56.1392 155.75 55.7739 155.75 55.323V51.1474C155.75 50.6966 156.116 50.3312 156.566 50.3312H160.742C161.193 50.3312 161.558 50.6966 161.558 51.1474V55.323C161.558 55.7739 161.193 56.1392 160.742 56.1392Z" fill="white"/>
</g>
</g>
<path d="M199.401 81.8814C199.401 81.9371 193.688 81.982 186.642 81.982C179.594 81.982 173.882 81.9371 173.882 81.8814C173.882 81.8258 179.594 81.7809 186.642 81.7809C193.688 81.7809 199.401 81.8258 199.401 81.8814Z" fill="#1A2E35"/>
<path d="M199.401 85.0366C199.401 85.0923 193.688 85.1376 186.642 85.1376C179.594 85.1376 173.882 85.0923 173.882 85.0366C173.882 84.981 179.594 84.9361 186.642 84.9361C193.688 84.9361 199.401 84.981 199.401 85.0366Z" fill="#1A2E35"/>
<path d="M199.401 88.1939C199.401 88.2496 193.688 88.2944 186.642 88.2944C179.594 88.2944 173.882 88.2496 173.882 88.1939C173.882 88.1382 179.594 88.0934 186.642 88.0934C193.688 88.0934 199.401 88.1382 199.401 88.1939Z" fill="#1A2E35"/>
<path d="M199.401 91.3495C199.401 91.4051 193.688 91.45 186.642 91.45C179.594 91.45 173.882 91.4051 173.882 91.3495C173.882 91.2938 179.594 91.2486 186.642 91.2486C193.688 91.2486 199.401 91.2938 199.401 91.3495Z" fill="#1A2E35"/>
<path d="M186.686 94.5058C186.686 94.5197 186.507 94.5328 186.183 94.5452C185.819 94.5537 185.359 94.5642 184.811 94.5769C183.652 94.5951 182.052 94.6067 180.285 94.6067C178.516 94.6067 176.916 94.5951 175.757 94.5769C175.209 94.5642 174.749 94.5537 174.385 94.5452C174.061 94.5328 173.882 94.5197 173.882 94.5058C173.882 94.4919 174.061 94.4787 174.385 94.4667C174.749 94.4582 175.209 94.4474 175.757 94.4346C176.916 94.4165 178.516 94.4052 180.285 94.4052C182.052 94.4052 183.652 94.4165 184.811 94.4346C185.359 94.4474 185.819 94.4582 186.183 94.4667C186.507 94.4787 186.686 94.4919 186.686 94.5058Z" fill="#1A2E35"/>
<path d="M196.435 121.21H168.695V111.342C168.695 108.852 170.713 106.833 173.203 106.833H196.435C198.925 106.833 200.943 108.852 200.943 111.342V116.702C200.943 119.191 198.925 121.21 196.435 121.21Z" fill="#ECECEC"/>
<path d="M196.043 112.294C196.043 112.35 191.018 112.395 184.82 112.395C178.621 112.395 173.597 112.35 173.597 112.294C173.597 112.238 178.621 112.194 184.82 112.194C191.018 112.194 196.043 112.238 196.043 112.294Z" fill="#1A2E35"/>
<path d="M187.303 115.794C187.303 115.808 187.112 115.821 186.765 115.834C186.379 115.842 185.886 115.853 185.296 115.865C184.056 115.883 182.342 115.895 180.45 115.895C178.558 115.895 176.844 115.883 175.604 115.865C175.014 115.853 174.521 115.842 174.135 115.834C173.788 115.821 173.597 115.808 173.597 115.794C173.597 115.78 173.788 115.767 174.135 115.755C174.521 115.747 175.014 115.736 175.604 115.723C176.844 115.705 178.558 115.694 180.45 115.694C182.342 115.694 184.056 115.705 185.296 115.723C185.886 115.736 186.379 115.747 186.765 115.755C187.112 115.767 187.303 115.78 187.303 115.794Z" fill="#1A2E35"/>
<path d="M152.848 140.198V141.709H152.692V140.336H152.336V140.198H152.848Z" fill="#E1E1E1"/>
<path d="M153.627 140.198V141.709H153.472V140.336H153.115V140.198H153.627Z" fill="#E1E1E1"/>
<path d="M153.989 141.601C153.989 141.534 154.041 141.484 154.103 141.484C154.166 141.484 154.22 141.534 154.22 141.601C154.22 141.668 154.166 141.72 154.103 141.72C154.041 141.72 153.989 141.668 153.989 141.601ZM153.989 140.681C153.989 140.614 154.041 140.564 154.103 140.564C154.166 140.564 154.22 140.614 154.22 140.681C154.22 140.748 154.166 140.8 154.103 140.8C154.041 140.8 153.989 140.748 153.989 140.681Z" fill="#E1E1E1"/>
<path d="M155.444 141.276C155.444 141.528 155.261 141.722 154.896 141.722C154.678 141.722 154.468 141.647 154.352 141.528L154.427 141.405C154.524 141.507 154.699 141.58 154.896 141.58C155.146 141.58 155.285 141.463 155.285 141.276C155.285 141.094 155.157 140.976 154.876 140.976H154.768V140.861L155.187 140.336H154.414V140.198H155.386V140.308L154.959 140.846C155.282 140.863 155.444 141.034 155.444 141.276Z" fill="#E1E1E1"/>
<path d="M156.708 140.954C156.708 140.55 156.527 140.328 156.264 140.328C156 140.328 155.818 140.55 155.818 140.954C155.818 141.358 156 141.58 156.264 141.58C156.527 141.58 156.708 141.358 156.708 140.954ZM155.661 140.954C155.661 140.472 155.914 140.186 156.264 140.186C156.613 140.186 156.868 140.472 156.868 140.954C156.868 141.436 156.613 141.722 156.264 141.722C155.914 141.722 155.661 141.436 155.661 140.954Z" fill="#E1E1E1"/>
<path d="M213.771 142.073H199.611V127.914H213.771V142.073Z" fill="#FF4F5B"/>
<path d="M209.68 131.984C209.711 132.825 210.832 133.335 210.818 134.177C210.812 134.538 210.588 134.862 210.544 135.221C210.485 135.703 210.754 136.158 210.854 136.633C211.059 137.613 210.489 138.645 209.644 139.182C208.799 139.718 207.739 139.82 206.748 139.685" fill="#1A2E35"/>
<path d="M202.908 131.777C202.941 132.229 202.642 132.632 202.342 132.971C202.042 133.31 201.708 133.663 201.643 134.111C201.527 134.905 202.304 135.643 202.144 136.429C202.059 136.85 201.713 137.189 201.652 137.615C201.593 138.027 201.813 138.429 202.087 138.743C202.36 139.057 202.677 139.011 202.919 139.349C203.174 139.706 203.584 140.071 203.968 140.282C204.84 140.759 205.886 140.068 206.306 139.945" fill="#1A2E35"/>
<path d="M209.849 132.468C209.861 132.058 209.482 131.742 209.1 131.592C208.72 131.442 208.295 131.385 207.956 131.157C207.655 130.954 207.453 130.638 207.198 130.38C206.573 129.746 205.597 129.484 204.738 129.718C203.88 129.952 203.172 130.674 202.956 131.537C202.81 132.12 202.91 132.81 203.369 133.198C203.903 133.647 204.694 133.548 205.378 133.408C206.062 133.268 206.835 133.13 207.407 133.531C207.751 133.773 207.948 134.167 208.159 134.532C208.369 134.896 208.633 135.268 209.031 135.406C209.429 135.543 209.97 135.306 209.985 134.885" fill="#1A2E35"/>
<path d="M208.234 132.552L204.599 131.625C203.434 131.498 202.656 132.931 202.58 134.1C202.496 135.398 202.443 136.988 202.595 137.957C202.9 139.906 204.393 140.158 204.393 140.158C204.393 140.153 204.399 141.068 204.405 142.008L208.513 142.073L208.846 133.248C208.853 132.893 208.588 132.59 208.234 132.552Z" fill="#FFBF9D"/>
<path d="M203.199 135.213C203.194 135.345 203.302 135.458 203.439 135.466C203.577 135.473 203.692 135.373 203.697 135.241C203.702 135.109 203.594 134.996 203.457 134.988C203.32 134.98 203.204 135.081 203.199 135.213Z" fill="#1A2E35"/>
<path d="M202.922 134.928C202.953 134.96 203.143 134.821 203.412 134.822C203.681 134.819 203.878 134.958 203.907 134.925C203.921 134.911 203.89 134.852 203.804 134.789C203.72 134.727 203.575 134.666 203.408 134.666C203.24 134.667 203.099 134.728 203.018 134.791C202.935 134.855 202.907 134.913 202.922 134.928Z" fill="#1A2E35"/>
<path d="M205.809 135.281C205.804 135.413 205.912 135.526 206.05 135.534C206.187 135.542 206.303 135.441 206.308 135.309C206.313 135.177 206.205 135.064 206.068 135.057C205.93 135.048 205.814 135.149 205.809 135.281Z" fill="#1A2E35"/>
<path d="M205.566 134.984C205.597 135.016 205.787 134.877 206.055 134.878C206.324 134.875 206.521 135.014 206.55 134.981C206.565 134.967 206.534 134.908 206.447 134.845C206.363 134.782 206.219 134.722 206.052 134.722C205.884 134.722 205.743 134.784 205.661 134.847C205.579 134.91 205.551 134.969 205.566 134.984Z" fill="#1A2E35"/>
<path d="M204.585 136.976C204.587 136.961 204.42 136.932 204.149 136.896C204.08 136.889 204.015 136.875 204.004 136.828C203.988 136.778 204.017 136.705 204.05 136.625C204.115 136.459 204.183 136.285 204.254 136.102C204.538 135.358 204.744 134.747 204.713 134.736C204.684 134.725 204.429 135.318 204.145 136.062C204.077 136.246 204.012 136.42 203.949 136.588C203.923 136.666 203.879 136.754 203.914 136.857C203.932 136.908 203.982 136.946 204.026 136.958C204.07 136.971 204.109 136.972 204.143 136.974C204.416 136.99 204.585 136.991 204.585 136.976Z" fill="#1A2E35"/>
<path d="M204.393 140.158C204.393 140.158 205.703 140.245 207.004 139.467C206.981 139.472 206.285 140.822 204.418 140.618L204.393 140.158Z" fill="#FF9A6C"/>
<path d="M204.698 137.624C204.795 137.496 204.964 137.426 205.133 137.445C205.249 137.457 205.367 137.514 205.438 137.609C205.509 137.704 205.523 137.839 205.458 137.93C205.385 138.032 205.234 138.055 205.106 138.018C204.977 137.981 204.867 137.897 204.763 137.812C204.734 137.789 204.704 137.764 204.686 137.732C204.668 137.701 204.664 137.659 204.686 137.632" fill="#FF4F5B"/>
<path d="M205.376 137.164C205.333 137.161 205.332 137.453 205.081 137.659C204.832 137.867 204.52 137.833 204.518 137.874C204.514 137.893 204.587 137.931 204.718 137.935C204.848 137.94 205.035 137.899 205.189 137.772C205.341 137.645 205.407 137.476 205.417 137.357C205.429 137.234 205.397 137.162 205.376 137.164Z" fill="#1A2E35"/>
<path d="M205.447 134.512C205.473 134.585 205.742 134.552 206.057 134.59C206.373 134.622 206.627 134.715 206.67 134.65C206.688 134.618 206.644 134.55 206.541 134.478C206.44 134.407 206.277 134.34 206.087 134.318C205.898 134.297 205.725 134.327 205.61 134.374C205.494 134.42 205.435 134.477 205.447 134.512Z" fill="#1A2E35"/>
<path d="M203.023 134.149C203.07 134.21 203.256 134.147 203.478 134.145C203.701 134.135 203.889 134.187 203.933 134.123C203.952 134.092 203.923 134.031 203.84 133.973C203.759 133.915 203.623 133.868 203.47 133.872C203.317 133.876 203.185 133.932 203.107 133.994C203.028 134.057 203.002 134.12 203.023 134.149Z" fill="#1A2E35"/>
<path d="M209.058 139.071C208.522 139.178 208.474 138.906 208.074 138.533C207.674 138.161 207.467 137.591 207.536 137.049C207.596 136.57 207.854 136.083 207.688 135.631C207.469 135.032 206.63 134.847 206.407 134.25C206.278 133.902 206.393 133.496 206.247 133.156C206.109 132.836 205.772 132.651 205.444 132.533C205.117 132.414 204.765 132.332 204.49 132.119C204.214 131.905 204.043 131.501 204.22 131.201C205.674 131.375 207.107 131.723 208.478 132.236C208.796 132.354 209.131 132.497 209.318 132.78C209.517 133.079 209.508 133.465 209.491 133.824L209.246 139.073" fill="#1A2E35"/>
<path d="M210.283 135.095C210.344 134.453 210.868 133.883 211.502 133.767C212.137 133.651 212.828 133.998 213.113 134.577C213.384 135.128 213.29 135.797 213.037 136.356C212.737 137.02 212.122 137.627 211.393 137.594C210.709 137.563 210.157 136.961 209.959 136.305C209.762 135.648 209.841 134.944 209.923 134.263" fill="#1A2E35"/>
<path d="M210.665 137.765C210.668 137.767 210.712 137.734 210.767 137.651C210.823 137.571 210.885 137.437 210.913 137.262C210.941 137.087 210.936 136.874 210.895 136.646C210.855 136.417 210.778 136.177 210.722 135.921C210.664 135.667 210.638 135.419 210.679 135.2C210.719 134.984 210.821 134.799 210.866 134.628C210.915 134.457 210.909 134.306 210.878 134.211C210.847 134.115 210.805 134.075 210.802 134.078C210.795 134.082 210.827 134.127 210.846 134.219C210.865 134.31 210.862 134.45 210.808 134.61C210.759 134.772 210.65 134.952 210.602 135.185C210.553 135.418 210.579 135.681 210.638 135.94C210.696 136.2 210.775 136.439 210.818 136.66C210.862 136.882 210.872 137.085 210.852 137.254C210.816 137.595 210.649 137.756 210.665 137.765Z" fill="#375A64"/>
<path d="M210.695 135.424C210.688 135.429 210.781 135.565 210.993 135.717C211.203 135.868 211.548 136.023 211.951 136.03C212.355 136.038 212.704 135.895 212.919 135.75C213.137 135.606 213.235 135.474 213.228 135.469C213.218 135.458 213.106 135.573 212.888 135.699C212.672 135.825 212.336 135.952 211.953 135.945C211.57 135.938 211.238 135.8 211.027 135.666C210.813 135.532 210.705 135.414 210.695 135.424Z" fill="#375A64"/>
<path d="M210.79 135.73C210.782 135.734 210.83 135.86 210.956 136.036C211.08 136.212 211.292 136.43 211.576 136.602C211.861 136.773 212.153 136.858 212.367 136.885C212.582 136.913 212.715 136.897 212.715 136.887C212.715 136.873 212.583 136.868 212.378 136.825C212.172 136.784 211.894 136.693 211.62 136.529C211.346 136.364 211.137 136.16 211.003 135.998C210.869 135.837 210.803 135.723 210.79 135.73Z" fill="#375A64"/>
<path d="M210.299 138.416C210.301 138.417 210.308 138.409 210.321 138.392C210.333 138.375 210.354 138.351 210.374 138.314C210.419 138.243 210.471 138.13 210.502 137.973C210.534 137.818 210.537 137.616 210.471 137.398C210.41 137.18 210.259 136.946 210.018 136.788C209.787 136.625 209.486 136.511 209.294 136.252C209.199 136.125 209.159 135.961 209.189 135.795C209.215 135.627 209.291 135.463 209.358 135.289C209.507 134.94 209.509 134.504 209.333 134.125C209.244 133.938 209.114 133.762 208.938 133.634C208.763 133.502 208.55 133.434 208.34 133.387C208.129 133.338 207.919 133.31 207.723 133.252C207.528 133.193 207.342 133.106 207.206 132.969C207.068 132.834 207.009 132.646 206.982 132.458C206.956 132.269 206.941 132.074 206.891 131.891C206.795 131.526 206.609 131.202 206.365 130.969C206.12 130.735 205.82 130.601 205.537 130.559C205.253 130.514 204.985 130.567 204.783 130.673C204.58 130.776 204.439 130.92 204.348 131.05C204.257 131.181 204.215 131.3 204.196 131.381C204.175 131.461 204.176 131.506 204.176 131.506C204.189 131.511 204.192 131.323 204.375 131.069C204.467 130.946 204.607 130.811 204.805 130.715C205 130.618 205.256 130.572 205.527 130.618C205.798 130.662 206.084 130.795 206.315 131.02C206.548 131.245 206.724 131.558 206.814 131.911C206.862 132.087 206.875 132.273 206.902 132.47C206.927 132.663 206.991 132.877 207.147 133.027C207.297 133.18 207.496 133.272 207.699 133.333C207.903 133.395 208.115 133.423 208.321 133.47C208.527 133.516 208.727 133.581 208.887 133.703C209.05 133.821 209.173 133.984 209.257 134.161C209.423 134.518 209.425 134.925 209.285 135.261C209.22 135.432 209.142 135.601 209.114 135.783C209.082 135.964 209.131 136.157 209.237 136.294C209.45 136.573 209.76 136.682 209.984 136.838C210.217 136.987 210.362 137.203 210.425 137.412C210.493 137.621 210.495 137.815 210.47 137.967C210.417 138.276 210.287 138.41 210.299 138.416Z" fill="#375A64"/>
<path d="M210.169 132.976C210.169 132.976 210.188 132.948 210.193 132.887C210.2 132.826 210.191 132.729 210.129 132.628C210.068 132.528 209.961 132.42 209.803 132.358C209.644 132.297 209.446 132.299 209.243 132.34C209.039 132.378 208.827 132.46 208.596 132.505C208.368 132.549 208.096 132.555 207.891 132.394C207.684 132.236 207.58 131.964 207.473 131.693C207.369 131.416 207.222 131.137 207.023 130.89C206.626 130.396 206.088 130.056 205.549 129.936C205.279 129.878 205.007 129.883 204.77 129.956C204.534 130.03 204.335 130.164 204.2 130.326C204.062 130.486 203.995 130.676 203.984 130.842C203.971 131.008 204.003 131.152 204.049 131.259C204.093 131.368 204.152 131.439 204.195 131.482C204.238 131.525 204.266 131.542 204.267 131.54C204.277 131.533 204.16 131.459 204.08 131.247C204.04 131.142 204.014 131.004 204.032 130.846C204.047 130.689 204.114 130.514 204.246 130.365C204.376 130.215 204.566 130.091 204.791 130.025C205.015 129.958 205.273 129.956 205.532 130.014C206.049 130.133 206.572 130.464 206.956 130.943C207.149 131.184 207.292 131.45 207.395 131.724C207.503 131.992 207.61 132.28 207.843 132.457C207.957 132.545 208.096 132.589 208.228 132.601C208.361 132.614 208.489 132.598 208.609 132.574C208.85 132.524 209.058 132.44 209.256 132.399C209.451 132.356 209.639 132.351 209.786 132.403C209.935 132.456 210.04 132.554 210.101 132.645C210.163 132.738 210.177 132.827 210.176 132.886C210.176 132.945 210.164 132.975 210.169 132.976Z" fill="#375A64"/>
<path d="M166.004 142.643H193.745V132.775C193.745 130.285 191.726 128.266 189.236 128.266H166.004C163.515 128.266 161.496 130.285 161.496 132.775V138.134C161.496 140.624 163.515 142.643 166.004 142.643Z" fill="#ECECEC"/>
<path d="M188.519 133.579C188.519 133.635 183.563 133.679 177.45 133.679C171.335 133.679 166.379 133.635 166.379 133.579C166.379 133.523 171.335 133.478 177.45 133.478C183.563 133.478 188.519 133.523 188.519 133.579Z" fill="#1A2E35"/>
<path d="M188.519 136.986C188.519 137.042 183.563 137.087 177.45 137.087C171.335 137.087 166.379 137.042 166.379 136.986C166.379 136.93 171.335 136.885 177.45 136.885C183.563 136.885 188.519 136.93 188.519 136.986Z" fill="#1A2E35"/>
<path d="M196.458 154.555C196.458 154.611 191.142 154.656 184.587 154.656C178.029 154.656 172.715 154.611 172.715 154.555C172.715 154.5 178.029 154.455 184.587 154.455C191.142 154.455 196.458 154.5 196.458 154.555Z" fill="#1A2E35"/>
<path d="M187.982 157.971C187.982 157.985 187.769 157.998 187.382 158.011C186.96 158.019 186.409 158.029 185.746 158.043C184.365 158.06 182.456 158.072 180.348 158.072C178.24 158.072 176.331 158.06 174.95 158.043C174.287 158.029 173.736 158.019 173.313 158.011C172.927 157.998 172.713 157.985 172.713 157.971C172.713 157.957 172.927 157.944 173.313 157.932C173.736 157.924 174.287 157.913 174.95 157.9C176.331 157.882 178.24 157.871 180.348 157.871C182.456 157.871 184.365 157.882 185.746 157.9C186.409 157.913 186.96 157.924 187.382 157.932C187.769 157.944 187.982 157.957 187.982 157.971Z" fill="#1A2E35"/>
<path d="M193.097 69.0058C193.097 69.0128 193.013 69.0194 192.853 69.0259C192.671 69.0302 192.439 69.0364 192.152 69.0437C191.543 69.0557 190.663 69.0627 189.575 69.0662C187.398 69.0727 184.39 69.043 181.071 68.9768C177.761 68.9188 174.766 68.8667 172.568 68.8284C171.499 68.8114 170.625 68.7971 169.991 68.787C169.704 68.7789 169.472 68.7723 169.29 68.7669C169.13 68.7603 169.046 68.7534 169.046 68.7464C169.046 68.7394 169.13 68.7325 169.29 68.7263C169.472 68.7221 169.704 68.7159 169.991 68.7085C170.6 68.6965 171.48 68.6896 172.569 68.6861C174.745 68.6795 177.753 68.7093 181.074 68.7754C184.383 68.8334 187.377 68.8856 189.575 68.9239C190.644 68.9413 191.518 68.9552 192.152 68.9652C192.439 68.9734 192.672 68.9799 192.853 68.9853C193.013 68.9919 193.097 68.9989 193.097 69.0058Z" fill="#E1E1E1"/>
</svg>
