<svg width="362" height="228" viewBox="0 0 362 228" fill="none" xmlns="http://www.w3.org/2000/svg">
<rect x="1.4664" y="1.10141" width="359.698" height="225.617" rx="1.93386" fill="#F4FCFF" stroke="#CECECE" stroke-width="1.28924"/>
<path d="M283.166 142.593V42.7894C283.166 33.6508 275.757 26.2415 266.618 26.2415H96.0139C86.8746 26.2415 79.4653 33.6508 79.4653 42.7894V142.593C79.4653 151.732 86.8746 159.141 96.0139 159.141H266.618C275.757 159.141 283.166 151.732 283.166 142.593Z" fill="#CBE6FF"/>
<path d="M278.153 142.691V42.6913C278.153 36.3996 273.053 31.2987 266.761 31.2987H96.9199C90.6282 31.2987 85.5273 36.3996 85.5273 42.6913V142.691C85.5273 148.983 90.6282 154.083 96.9199 154.083L266.761 154.084C273.053 154.084 278.153 148.983 278.153 142.691Z" fill="white"/>
<path d="M176.724 135.821V135.472H105.66C104.013 135.471 102.524 134.805 101.445 133.726C100.365 132.645 99.6986 131.157 99.6986 129.509V53.1425C99.6986 51.4952 100.365 50.0068 101.445 48.927C102.524 47.8479 104.013 47.181 105.66 47.181H176.725C178.372 47.181 179.86 47.8479 180.94 48.927C182.019 50.0068 182.686 51.4952 182.686 53.1425V129.509C182.686 131.157 182.019 132.645 180.94 133.726C179.86 134.805 178.372 135.471 176.724 135.472V135.821V136.171C180.404 136.171 183.385 133.189 183.385 129.509V53.1425C183.385 49.4633 180.404 46.4814 176.725 46.4814H105.66C101.981 46.4814 98.999 49.4633 98.999 53.1425V129.509C98.999 133.189 101.981 136.171 105.66 136.171H176.724V135.821Z" fill="#D8DCFD"/>
<path d="M262.32 97.9334V97.5836H196.421C194.775 97.5829 193.286 96.9167 192.207 95.8369C191.127 94.7571 190.46 93.2687 190.46 91.6214V53.1426C190.46 51.4953 191.127 50.0069 192.207 48.9271C193.286 47.848 194.775 47.1811 196.421 47.1811H262.32C263.967 47.1811 265.456 47.848 266.536 48.9271C267.615 50.0069 268.282 51.4953 268.282 53.1426V91.6214C268.282 93.2687 267.615 94.7571 266.536 95.8369C265.455 96.9167 263.967 97.5829 262.32 97.5836V97.9334V98.2832C265.999 98.2825 268.981 95.3006 268.981 91.6214V53.1426C268.981 49.4634 265.999 46.4815 262.32 46.4815H196.421C192.743 46.4815 189.76 49.4634 189.76 53.1426V91.6214C189.76 95.3006 192.743 98.2825 196.421 98.2832H262.32V97.9334Z" fill="#D8DCFD"/>
<path d="M262.32 135.738V135.389H196.421C194.775 135.389 193.286 134.722 192.206 133.643C191.127 132.563 190.46 131.074 190.46 129.427V111.365C190.46 109.717 191.127 108.229 192.206 107.149C193.286 106.07 194.775 105.403 196.421 105.403H262.32C263.967 105.403 265.456 106.07 266.536 107.149C267.615 108.229 268.282 109.717 268.282 111.365V129.427C268.282 131.074 267.615 132.563 266.536 133.643C265.455 134.722 263.967 135.389 262.32 135.389V135.738V136.089C265.999 136.088 268.981 133.106 268.981 129.427V111.365C268.981 107.686 265.999 104.704 262.32 104.704H196.421C192.743 104.704 189.76 107.686 189.76 111.365V129.427C189.76 133.106 192.743 136.088 196.421 136.089H262.32V135.738Z" fill="#D8DCFD"/>
<path d="M169.658 121.95H112.628C111.185 121.95 110.016 120.781 110.016 119.338V107.878C110.016 106.436 111.185 105.266 112.628 105.266H169.658C171.102 105.266 172.271 106.436 172.271 107.878V119.338C172.271 120.781 171.102 121.95 169.658 121.95Z" fill="#9A7EE8"/>
<path d="M128.888 116.082C128.624 116.082 128.386 116.037 128.175 115.946C127.964 115.852 127.798 115.72 127.677 115.55C127.556 115.38 127.496 115.182 127.496 114.956H128.186C128.201 115.125 128.267 115.265 128.384 115.374C128.505 115.484 128.673 115.539 128.888 115.539C129.111 115.539 129.284 115.486 129.409 115.38C129.533 115.271 129.596 115.131 129.596 114.961C129.596 114.829 129.556 114.722 129.477 114.639C129.401 114.556 129.305 114.492 129.188 114.446C129.075 114.401 128.916 114.352 128.713 114.299C128.456 114.231 128.247 114.163 128.084 114.095C127.926 114.024 127.79 113.914 127.677 113.767C127.564 113.62 127.507 113.424 127.507 113.178C127.507 112.952 127.564 112.754 127.677 112.584C127.79 112.414 127.949 112.284 128.152 112.194C128.356 112.103 128.592 112.058 128.86 112.058C129.241 112.058 129.552 112.154 129.794 112.346C130.039 112.535 130.175 112.796 130.201 113.128H129.488C129.477 112.984 129.409 112.862 129.284 112.76C129.16 112.658 128.996 112.607 128.792 112.607C128.607 112.607 128.456 112.654 128.339 112.748C128.222 112.843 128.164 112.979 128.164 113.156C128.164 113.277 128.199 113.377 128.271 113.456C128.347 113.531 128.441 113.592 128.554 113.637C128.667 113.682 128.822 113.731 129.018 113.784C129.279 113.856 129.49 113.927 129.652 113.999C129.818 114.071 129.958 114.182 130.071 114.333C130.188 114.48 130.246 114.678 130.246 114.927C130.246 115.127 130.192 115.316 130.082 115.493C129.977 115.671 129.82 115.814 129.613 115.923C129.409 116.029 129.167 116.082 128.888 116.082ZM132.621 112.873C132.858 112.873 133.07 112.924 133.255 113.026C133.443 113.128 133.59 113.278 133.696 113.478C133.806 113.678 133.86 113.92 133.86 114.203V116.042H133.221V114.299C133.221 114.02 133.151 113.807 133.011 113.66C132.872 113.509 132.681 113.433 132.44 113.433C132.198 113.433 132.006 113.509 131.862 113.66C131.723 113.807 131.653 114.02 131.653 114.299V116.042H131.008V111.854H131.653V113.286C131.762 113.154 131.9 113.052 132.066 112.98C132.236 112.909 132.421 112.873 132.621 112.873ZM136.036 116.093C135.742 116.093 135.476 116.027 135.238 115.895C135 115.759 134.813 115.571 134.678 115.329C134.542 115.084 134.474 114.801 134.474 114.48C134.474 114.163 134.544 113.882 134.683 113.637C134.823 113.392 135.013 113.203 135.255 113.071C135.496 112.939 135.766 112.873 136.064 112.873C136.362 112.873 136.632 112.939 136.874 113.071C137.115 113.203 137.306 113.392 137.445 113.637C137.585 113.882 137.655 114.163 137.655 114.48C137.655 114.797 137.583 115.078 137.44 115.324C137.296 115.569 137.1 115.759 136.851 115.895C136.606 116.027 136.334 116.093 136.036 116.093ZM136.036 115.533C136.202 115.533 136.357 115.493 136.5 115.414C136.647 115.335 136.766 115.216 136.857 115.058C136.947 114.899 136.992 114.707 136.992 114.48C136.992 114.254 136.949 114.063 136.862 113.909C136.775 113.75 136.66 113.631 136.517 113.552C136.374 113.473 136.219 113.433 136.053 113.433C135.887 113.433 135.732 113.473 135.589 113.552C135.449 113.631 135.338 113.75 135.255 113.909C135.172 114.063 135.13 114.254 135.13 114.48C135.13 114.816 135.215 115.076 135.385 115.261C135.559 115.442 135.776 115.533 136.036 115.533ZM138.938 113.382C139.047 113.239 139.196 113.118 139.385 113.02C139.573 112.922 139.787 112.873 140.024 112.873C140.296 112.873 140.543 112.941 140.766 113.077C140.992 113.209 141.17 113.395 141.298 113.637C141.426 113.878 141.49 114.156 141.49 114.469C141.49 114.782 141.426 115.063 141.298 115.312C141.17 115.557 140.992 115.75 140.766 115.89C140.543 116.025 140.296 116.093 140.024 116.093C139.787 116.093 139.575 116.046 139.39 115.952C139.206 115.854 139.055 115.733 138.938 115.59V117.525H138.292V112.924H138.938V113.382ZM140.834 114.469C140.834 114.254 140.788 114.069 140.698 113.914C140.611 113.756 140.494 113.637 140.347 113.558C140.204 113.475 140.049 113.433 139.883 113.433C139.721 113.433 139.566 113.475 139.419 113.558C139.275 113.641 139.158 113.761 139.068 113.92C138.981 114.078 138.938 114.265 138.938 114.48C138.938 114.695 138.981 114.884 139.068 115.046C139.158 115.205 139.275 115.325 139.419 115.408C139.566 115.491 139.721 115.533 139.883 115.533C140.049 115.533 140.204 115.491 140.347 115.408C140.494 115.322 140.611 115.197 140.698 115.035C140.788 114.873 140.834 114.684 140.834 114.469ZM145.172 112.873C145.417 112.873 145.636 112.924 145.828 113.026C146.025 113.128 146.177 113.278 146.287 113.478C146.396 113.678 146.451 113.92 146.451 114.203V116.042H145.811V114.299C145.811 114.02 145.742 113.807 145.602 113.66C145.462 113.509 145.272 113.433 145.03 113.433C144.789 113.433 144.597 113.509 144.453 113.66C144.314 113.807 144.244 114.02 144.244 114.299V116.042H143.599V112.924H144.244V113.28C144.349 113.152 144.483 113.052 144.646 112.98C144.812 112.909 144.987 112.873 145.172 112.873ZM148.627 116.093C148.332 116.093 148.066 116.027 147.829 115.895C147.591 115.759 147.404 115.571 147.268 115.329C147.133 115.084 147.065 114.801 147.065 114.48C147.065 114.163 147.134 113.882 147.274 113.637C147.414 113.392 147.604 113.203 147.846 113.071C148.087 112.939 148.357 112.873 148.655 112.873C148.953 112.873 149.223 112.939 149.464 113.071C149.706 113.203 149.896 113.392 150.036 113.637C150.176 113.882 150.245 114.163 150.245 114.48C150.245 114.797 150.174 115.078 150.03 115.324C149.887 115.569 149.691 115.759 149.442 115.895C149.196 116.027 148.925 116.093 148.627 116.093ZM148.627 115.533C148.793 115.533 148.947 115.493 149.091 115.414C149.238 115.335 149.357 115.216 149.447 115.058C149.538 114.899 149.583 114.707 149.583 114.48C149.583 114.254 149.54 114.063 149.453 113.909C149.366 113.75 149.251 113.631 149.108 113.552C148.964 113.473 148.81 113.433 148.644 113.433C148.478 113.433 148.323 113.473 148.18 113.552C148.04 113.631 147.929 113.75 147.846 113.909C147.763 114.063 147.721 114.254 147.721 114.48C147.721 114.816 147.806 115.076 147.976 115.261C148.149 115.442 148.366 115.533 148.627 115.533ZM155.071 112.924L154.104 116.042H153.424L152.796 113.739L152.168 116.042H151.489L150.515 112.924H151.172L151.823 115.431L152.485 112.924H153.158L153.792 115.42L154.438 112.924H155.071Z" fill="white"/>
<path d="M168.861 98.7892H113.426C111.542 98.7892 110.016 97.2623 110.016 95.3792V58.0985C110.016 56.2153 111.542 54.6885 113.426 54.6885H168.861C170.744 54.6885 172.271 56.2153 172.271 58.0985V95.3792C172.271 97.2623 170.744 98.7892 168.861 98.7892Z" fill="#A1AEEF"/>
<path d="M149.782 84.7449C149.782 87.1295 147.841 89.0692 145.458 89.0692H135.377C132.989 89.0692 131.053 87.1331 131.053 84.7449V71.9931H134.358V75.9503C133.586 76.226 133.073 77.0504 133.318 77.9568C133.465 78.504 133.913 78.9502 134.461 79.0947C135.565 79.3871 136.561 78.5584 136.561 77.5011C136.561 76.7841 136.099 76.1781 135.46 75.9503V71.9931H145.375V75.9503C144.604 76.2253 144.091 77.049 144.334 77.9546C144.481 78.5018 144.928 78.9481 145.475 79.0939C146.579 79.3886 147.579 78.5591 147.579 77.5011C147.579 76.7848 147.117 76.1789 146.477 75.9503V71.9931H149.782V84.7449ZM135.459 67.7878C135.459 64.692 138.313 62.2493 141.528 62.9518C143.818 63.4518 145.375 65.5969 145.375 67.9409V70.8915H135.459V67.7878ZM150.333 70.8915H146.476V67.983C146.476 64.9503 144.331 62.237 141.331 61.7958C137.586 61.2457 134.358 64.1463 134.358 67.7878V70.8915H130.502C130.197 70.8915 129.951 71.1375 129.951 71.4423V84.7449C129.951 87.7412 132.38 90.1708 135.377 90.1708H145.458C148.454 90.1708 150.883 87.7412 150.883 84.7449V71.4423C150.883 71.1375 150.637 70.8915 150.333 70.8915Z" fill="white"/>
<path d="M176.121 56.3685C176.121 59.9374 173.228 62.83 169.659 62.83C166.09 62.83 163.197 59.9374 163.197 56.3685C163.197 52.7995 166.09 49.9062 169.659 49.9062C173.228 49.9062 176.121 52.7995 176.121 56.3685Z" fill="#F5DB4A"/>
<path d="M166.798 56.7196L169.217 58.4866C169.373 58.6012 169.593 58.5708 169.713 58.4191L172.591 54.7631C172.714 54.6071 172.686 54.3807 172.53 54.2573C172.374 54.1346 172.147 54.1615 172.025 54.3175L169.361 57.7L167.223 56.1375C167.062 56.02 166.837 56.0555 166.72 56.2159C166.602 56.3763 166.638 56.602 166.798 56.7196Z" fill="white"/>
<path d="M111.756 37.9352C111.756 39.2494 110.691 40.3147 109.377 40.3147C108.063 40.3147 106.997 39.2494 106.997 37.9352C106.997 36.621 108.063 35.5556 109.377 35.5556C110.691 35.5556 111.756 36.621 111.756 37.9352Z" fill="#DD5213"/>
<path d="M121.004 37.9352C121.004 39.2494 119.939 40.3147 118.625 40.3147C117.311 40.3147 116.245 39.2494 116.245 37.9352C116.245 36.621 117.311 35.5556 118.625 35.5556C119.939 35.5556 121.004 36.621 121.004 37.9352Z" fill="#F5DB4A"/>
<path d="M130.252 37.9352C130.252 39.2494 129.187 40.3147 127.872 40.3147C126.558 40.3147 125.493 39.2494 125.493 37.9352C125.493 36.621 126.558 35.5556 127.872 35.5556C129.187 35.5556 130.252 36.621 130.252 37.9352Z" fill="#A1AEEF"/>
<path d="M244.864 72.463C244.864 80.9108 238.015 87.7598 229.567 87.7598C221.119 87.7598 214.27 80.9108 214.27 72.463C214.27 64.0139 221.119 57.1656 229.567 57.1656C238.015 57.1656 244.864 64.0139 244.864 72.463Z" fill="#DD5213"/>
<path d="M234.768 68.5273C233.515 67.3001 231.508 67.3219 230.282 68.5752L229.473 69.4003L228.641 68.581C227.394 67.3502 225.384 67.3669 224.154 68.6151C222.925 69.864 222.94 71.8727 224.19 73.102L227.276 76.1419L227.293 76.1629C227.786 76.6455 228.395 76.9343 229.029 77.0316C230.005 77.1818 231.037 76.8748 231.78 76.1158L234.816 73.0149C236.042 71.7624 236.021 69.7537 234.768 68.5273Z" fill="white"/>
<path d="M187.755 197.416C187.755 200.428 185.314 202.869 182.301 202.869C179.29 202.869 176.849 200.428 176.849 197.416C176.849 194.404 179.29 191.963 182.301 191.963C185.314 191.963 187.755 194.404 187.755 197.416Z" fill="#B4DBFF"/>
<path d="M155.555 197.416C155.555 200.428 153.114 202.869 150.101 202.869C147.09 202.869 144.648 200.428 144.648 197.416C144.648 194.404 147.09 191.963 150.101 191.963C153.114 191.963 155.555 194.404 155.555 197.416Z" fill="#B4DBFF"/>
<path d="M231.429 108.582L218.943 111.123L219.013 111.469L218.95 111.122C216.211 111.621 214.024 113.69 213.376 116.398L202.354 162.449H140.565C136.882 162.449 133.635 160.036 132.574 156.51L132.235 156.612L132.58 156.533L126.477 129.877L212.243 123.117L212.188 122.413L125.604 129.236L131.893 156.702L131.896 156.714C133.048 160.539 136.57 163.157 140.565 163.157H202.912L214.063 116.563C214.647 114.127 216.613 112.266 219.077 111.817H219.08L231.57 109.275L231.429 108.582Z" fill="black"/>
<path d="M130.02 147.199L207.064 142.698L197.855 180.507V180.508C196.331 187.011 190.529 191.61 183.85 191.61H138.623V192.317H183.85C190.858 192.317 196.944 187.492 198.544 180.669L198.543 180.672L207.978 141.936L129.979 146.494L130.02 147.199Z" fill="black"/>
<path d="M193.311 124.16L185.835 162.736L186.529 162.87L194.005 124.295" fill="black"/>
<path d="M144.296 128.133L148.455 162.845L149.157 162.761L144.998 128.048" fill="black"/>
<path d="M168.407 162.802H169.113V126.189H168.407V162.802Z" fill="black"/>
</svg>
